<svg width="32" height="32" viewBox="0 0 32 32" fill="none" xmlns="http://www.w3.org/2000/svg">
<path d="M21.3088 20.6987C21.8327 20.8733 22.399 20.5902 22.5737 20.0662C22.7483 19.5423 22.4652 18.976 21.9412 18.8013L21.625 19.75L21.3088 20.6987ZM16 17.875H15C15 18.3054 15.2754 18.6876 15.6838 18.8237L16 17.875ZM17 10.0348C17 9.4825 16.5523 9.03478 16 9.03478C15.4477 9.03478 15 9.4825 15 10.0348H16H17ZM21.625 19.75L21.9412 18.8013L16.3162 16.9263L16 17.875L15.6838 18.8237L21.3088 20.6987L21.625 19.75ZM16 17.875H17V10.0348H16H15V17.875H16ZM31 16H30C30 23.732 23.732 30 16 30V31V32C24.8366 32 32 24.8366 32 16H31ZM16 31V30C8.26801 30 2 23.732 2 16H1H0C0 24.8366 7.16344 32 16 32V31ZM1 16H2C2 8.26801 8.26801 2 16 2V1V0C7.16344 0 0 7.16344 0 16H1ZM16 1V2C23.732 2 30 8.26801 30 16H31H32C32 7.16344 24.8366 0 16 0V1Z" fill="#E91515"/>
</svg>
